#!OML:ASF E:\acrobat2\Project_11_07_03\Capture day 1\Session 1\Acrobat.ASF
:FULLY-SPECIFIED
:DEGREES
437
root 12.1168 14.6859 11.0364 -76.0661 3.57973 158.367
lowerback -3.92149 -6.27793 2.92425
upperback -7.13049 -8.34803 4.40269
thorax -4.98108 -4.27639 2.99026
lowerneck -9.84342 -9.94462 -22.4344
upperneck -12.2003 -9.65854 22.1858
head 0.513711 -3.7174 10.2731
rclavicle 4.19436e-014 -1.24023e-014
rhumerus 54.9121 1.38126 -25.4346
rradius 56.2605
rwrist 21.1606
rhand -32.0268 -42.3914
rfingers 7.12502
rthumb -5.27461 -72.3058
lclavicle 4.19436e-014 -1.24023e-014
lhumerus 14.4248 23.11 -10.1208
lradius 77.5014
lwrist 20.5536
lhand -19.0045 -28.2156
lfingers 7.12502
lthumb 7.3008 1.63848
rfemur -0.470602 7.97701 17.0814
rtibia 21.7288
rfoot -16.2336 -19.5248
rtoes 44.9304
lfemur -6.85943 -13.4959 -0.427262
ltibia 35.5232
lfoot 1.20607 8.44309
ltoes 8.93732
438
root 12.0668 14.0525 11.0285 -76.0584 4.0453 158.31
lowerback -4.45544 -6.36791 3.26628
upperback -7.39126 -8.50056 4.52264
thorax -4.9888 -4.37984 2.88928
lowerneck -9.05335 -10.2462 -21.7904
upperneck -14.0629 -10.019 21.5957
head -0.14888 -3.86318 10.0058
rclavicle -7.05686e-014 8.48174e-015
rhumerus 53.988 1.06996 -29.3121
rradius 59.8716
rwrist 25.4486
rhand -32.488 -43.5605
rfingers 7.12502
rthumb -5.71993 -73.4633
lclavicle -7.05686e-014 8.48174e-015
lhumerus 15.4153 21.0614 -9.77572
lradius 79.4267
lwrist 20.9624
lhand -18.8408 -29.0741
lfingers 7.12502
lthumb 7.45878 0.774423
rfemur 0.864988 8.07002 16.4606
rtibia 21.993
rfoot -14.0964 -19.4317
rtoes 43.0587
lfemur -5.86131 -13.0212 -1.02035
ltibia 35.2282
lfoot 1.72899 8.09677
ltoes 9.05944
439
root 12.0207 13.4081 11.0189 -76.0834 4.53728 158.241
lowerback -5.0399 -6.46836 3.51799
upperback -7.6536 -8.67411 4.65204
thorax -4.95656 -4.49139 2.8382
lowerneck -8.21835 -10.6376 -20.8729
upperneck -16.1131 -10.5194 20.7115
head -0.895169 -4.06013 9.60832
rclavicle 6.37602e-014 -4.40762e-015
rhumerus 52.3008 0.403021 -33.7752
rradius 66.0869
rwrist 28.7561
rhand -31.6528 -43.0048
rfingers 7.12502
rthumb -4.91351 -72.9278
lclavicle 6.37602e-014 -4.40762e-015
lhumerus 16.3344 18.649 -9.26172
lradius 81.313
lwrist 21.1834
lhand -18.7618 -29.9694
lfingers 7.12502
lthumb 7.53503 -0.12365
rfemur 2.18959 8.13377 15.8418
rtibia 22.2956
rfoot -11.3138 -19.3349
rtoes 41.3449
lfemur -4.85579 -12.5506 -1.56018
ltibia 34.894
lfoot 2.56846 7.73666
ltoes 8.96501
440
root 11.9783 12.7511 11.0067 -76.1253 5.0114 158.191
lowerback -5.6988 -6.57087 3.66291
upperback -7.92602 -8.858 4.81903
thorax -4.87259 -4.6049 2.871
lowerneck -7.26813 -11.1173 -19.4547
upperneck -18.5084 -11.1784 19.3786
head -1.8176 -4.30957 9.01501
rclavicle 3.89307e-014 -3.59445e-014
rhumerus 49.9431 -0.35149 -37.5442
rradius 74.475
rwrist 29.6416
rhand -29.7039 -41.2297
rfingers 7.12502
rthumb -3.03148 -71.1879
lclavicle 3.89307e-014 -3.59445e-014
lhumerus 17.1801 16.0145 -8.42413
lradius 83.0557
lwrist 20.8603
lhand -19.7203 -30.8483
lfingers 7.12502
lthumb 6.60987 -0.971477
rfemur 3.48151 8.0861 15.2452
rtibia 22.6241
rfoot -8.09385 -19.0476
rtoes 39.8325
lfemur -3.85257 -12.1125 -2.01488
ltibia 34.5411
lfoot 3.7154 7.37871
ltoes 8.80732
441
root 11.9387 12.0827 10.9929 -76.1958 5.42108 158.193
lowerback -6.41726 -6.66717 3.71722
upperback -8.20754 -9.03939 5.03987
thorax -4.74342 -4.71421 2.99696
lowerneck -6.17617 -11.6587 -17.3103
upperneck -21.3502 -11.9838 17.4537
head -3.00253 -4.59215 8.17739
rclavicle 9.49197e-015 -9.34754e-015
rhumerus 47.2412 -1.17019 -40.1172
rradius 83.8626
rwrist 28.0567
rhand -26.4816 -39.264
rfingers 7.12502
rthumb 0.0805845 -69.2437
lclavicle 9.49197e-015 -9.34754e-015
lhumerus 17.8748 13.316 -7.17318
lradius 84.6011
lwrist 19.6225
lhand -22.4189 -31.9334
lfingers 7.12502
lthumb 4.00428 -1.99133
rfemur 4.75 7.91624 14.6923
rtibia 22.9656
rfoot -4.60298 -18.4901
rtoes 38.2708
lfemur -2.82455 -11.811 -2.37741
ltibia 34.1941
lfoot 4.98329 7.12753
ltoes 9.19349
442
root 11.9003 11.4031 10.9765 -76.3013 5.70722 158.275
lowerback -7.19371 -6.74796 3.71169
upperback -8.49004 -9.206 5.32825
thorax -4.56358 -4.81427 3.21325
lowerneck -4.98127 -12.2278 -14.2954
upperneck -24.6278 -12.9143 14.8974
head -4.49558 -4.8844 7.08957
rclavicle 2.20651e-014 1.01436e-013
rhumerus 44.5014 -2.0755 -41.3531
rradius 92.8216
rwrist 24.7979
rhand -23.6785 -38.2072
rfingers 7.12502
rthumb 2.78784 -68.1687
lclavicle 2.20651e-014 1.01436e-013
lhumerus 18.3163 11.0038 -5.29128
lradius 86.2845
lwrist 17.73
lhand -26.9686 -33.0332
lfingers 7.12502
lthumb -0.389715 -3.0538
rfemur 5.99958 7.60752 14.206
rtibia 23.3101
rfoot -1.08836 -17.5506
rtoes 36.2927
lfemur -1.75807 -11.6573 -2.62089
ltibia 33.8874
lfoot 6.27778 7.01509
ltoes 9.91475
443
root 11.8616 10.7133 10.9571 -76.4433 5.85319 158.469
lowerback -8.02764 -6.80685 3.6399
upperback -8.76261 -9.35019 5.67834
thorax -4.32153 -4.90132 3.51672
lowerneck -3.83686 -12.7951 -10.4462
upperneck -28.1155 -13.9439 11.8258
head -6.24781 -5.17548 5.78662
rclavicle -8.52786e-014 4.43538e-015
rhumerus 41.9958 -3.26108 -41.4208
rradius 100.5
rwrist 21.1135
rhand -21.5727 -37.9927
rfingers 7.12502
rthumb 4.82134 -67.9178
lclavicle -8.52786e-014 4.43538e-015
lhumerus 18.1799 9.00965 -2.7916
lradius 87.5073
lwrist 12.4286
lhand -36.5165 -35.1723
lfingers 7.12502
lthumb -9.6082 -5.41136
rfemur 7.22372 7.18946 13.7701
rtibia 23.6733
rfoot 2.3518 -16.2092
rtoes 34.0695
lfemur -0.647252 -11.6143 -2.761
ltibia 33.6534
lfoot 7.53637 7.01291
ltoes 10.3769
444
root 11.8215 10.0159 10.9349 -76.6174 5.84716 158.801
lowerback -8.90992 -6.83969 3.49395
upperback -9.01696 -9.46658 6.07837
thorax -4.01453 -4.97297 3.90118
lowerneck -2.98176 -13.3262 -6.07253
upperneck -31.3192 -15.0192 8.51986
head -8.07113 -5.47965 4.34258
rclavicle 4.7112e-014 -9.78766e-014
rhumerus 39.695 -4.90342 -40.4384
rradius 106.846
rwrist 17.341
rhand -20.1046 -38.2524
rfingers 7.12502
rthumb 6.23879 -68.1405
lclavicle 4.7112e-014 -9.78766e-014
lhumerus 17.3344 7.90413 0.425436
lradius 88.788
lwrist 4.46849
lhand -49.0244 -36.1912
lfingers 7.12502
lthumb -21.6525 -7.38193
rfemur 8.39754 6.72042 13.3757
rtibia 24.093
rfoot 5.60539 -14.5368
rtoes 31.6832
lfemur 0.499935 -11.6364 -2.80943
ltibia 33.5226
lfoot 8.68757 7.07151
ltoes 10.0788
445
root 11.7797 9.31537 10.9098 -76.8242 5.68697 159.284
lowerback -9.82538 -6.84773 3.24887
upperback -9.23991 -9.55459 6.51498
thorax -3.63577 -5.02815 4.36856
lowerneck -2.56836 -13.797 -1.53068
upperneck -33.8439 -16.0826 5.25899
head -9.77063 -5.83015 2.83183
rclavicle -4.33351e-014 1.13059e-014
rhumerus 37.5037 -7.15029 -38.4914
rradius 112.032
rwrist 13.1419
rhand -19.393 -38.6741
rfingers 7.12502
rthumb 6.92583 -68.5408
lclavicle -4.33351e-014 1.13059e-014
lhumerus 16.1081 9.94102 4.74948
lradius 89.5917
lwrist -0.837562
lhand -52.6176 -44.237
lfingers 7.12502
lthumb -25.0993 -15.8666
rfemur 9.47121 6.24664 13.0077
rtibia 24.6526
rfoot 8.5828 -12.6241
rtoes 28.9532
lfemur 1.67477 -11.6681 -2.77506
ltibia 33.5102
lfoot 9.69207 7.15542
ltoes 9.08958
446
root 11.7361 8.61659 10.88 -77.0615 5.39253 159.922
lowerback -10.7572 -6.84021 2.85746
upperback -9.41946 -9.6205 6.97686
thorax -3.17655 -5.06826 4.93525
lowerneck -2.599 -14.1829 2.82405
upperneck -35.4796 -17.0645 2.30672
head -11.1762 -6.25008 1.3601
rclavicle -9.14409e-015 3.8266e-015
rhumerus 35.3586 -10.1141 -35.6601
rradius 116.238
rwrist 8.23548
rhand -19.2508 -38.8865
rfingers 7.12502
rthumb 7.06309 -68.7486
lclavicle -9.14409e-015 3.8266e-015
lhumerus 14.8283 15.0966 9.50369
lradius 95.7778
lwrist 7.73442
lhand -40.5028 -44.2474
lfingers 7.12502
lthumb -13.4525 -14.7018
rfemur 10.3651 5.7758 12.6247
rtibia 25.467
rfoot 11.2368 -10.5296
rtoes 25.3925
lfemur 2.84892 -11.656 -2.67657
ltibia 33.6325
lfoot 10.5498 7.25194
ltoes 7.79402
447
root 11.6908 7.92668 10.8438 -77.3208 5.00035 160.683
lowerback -11.6968 -6.83623 2.28639
upperback -9.54529 -9.68131 7.45256
thorax -2.62724 -5.10087 5.60885
lowerneck -2.94562 -14.4819 6.72511
upperneck -36.2506 -17.9237 -0.150332
head -12.1972 -6.7379 0.0453011
rclavicle 1.15693e-013 1.49735e-013
rhumerus 33.2097 -13.7879 -32.2138
rradius 119.684
rwrist 2.61373
rhand -19.4682 -38.8279
rfingers 7.12502
rthumb 6.85321 -68.697
lclavicle 1.15693e-013 1.49735e-013
lhumerus 13.1932 21.829 13.4678
lradius 103.105
lwrist 18.5828
lhand -24.3544 -40.1304
lfingers 7.12502
lthumb 2.13508 -10.1613
rfemur 10.9749 5.27139 12.1692
rtibia 26.6723
rfoot 13.539 -8.29334
rtoes 20.4927
lfemur 3.95234 -11.5541 -2.52313
ltibia 33.9213
lfoot 11.2832 7.38048
ltoes 6.49414
448
root 11.6428 7.25383 10.7997 -77.6097 4.5525 161.549
lowerback -12.6403 -6.84821 1.52021
upperback -9.59065 -9.74388 7.9245
thorax -1.9623 -5.12925 6.38005
lowerneck -3.41498 -14.7354 10.0583
upperneck -36.3886 -18.6769 -2.0033
head -12.8657 -7.27835 -1.01122
rclavicle -3.18055e-014 2.70347e-014
rhumerus 31.1417 -17.9993 -28.2647
rradius 122.342
rwrist -3.54875
rhand -19.9343 -38.7601
rfingers 7.12502
rthumb 6.40319 -68.6433
lclavicle -3.18055e-014 2.70347e-014
lhumerus 11.0413 28.5158 15.8179
lradius 110.346
lwrist 26.3255
lhand -12.9846 -31.7212
lfingers 7.12502
lthumb 13.1081 -2.15316
rfemur 11.209 4.65915 11.5467
rtibia 28.3965
rfoot 15.4988 -5.97346
rtoes 14.5027
lfemur 4.90229 -11.352 -2.34284
ltibia 34.4557
lfoot 11.9742 7.50733
ltoes 5.43095
449
root 11.5912 6.61097 10.7485 -77.941 4.10287 162.484
lowerback -13.5498 -6.88008 0.601853
upperback -9.53751 -9.80447 8.36185
thorax -1.19578 -5.15384 7.20181
lowerneck -3.86486 -14.9807 12.7465
upperneck -36.1308 -19.3387 -3.21669
head -13.2444 -7.83355 -1.74909
rclavicle -1.28812e-013 1.94809e-014
rhumerus 29.2147 -22.402 -24.1677
rradius 124.275
rwrist -9.82286
rhand -20.5271 -38.7668
rfingers 7.12502
rthumb 5.83096 -68.6666
lclavicle -1.28812e-013 1.94809e-014
lhumerus 7.92876 32.4269 15.985
lradius 113.884
lwrist 23.0886
lhand -17.6351 -30.9318
lfingers 7.12502
lthumb 8.62249 -1.12786
rfemur 11.0007 3.8907 10.6602
rtibia 30.731
rfoot 17.1993 -3.72485
rtoes 8.13622
lfemur 5.57329 -11.026 -2.15728
ltibia 35.37
lfoot 12.7201 7.58492
ltoes 4.76433
